<svg width="30" height="22" viewBox="0 0 30 22" fill="none" xmlns="http://www.w3.org/2000/svg">
<path d="M19.0909 0C21.9842 0 24.759 1.15893 26.8048 3.22183C28.8507 5.28473 30 8.08262 30 11C30 13.9174 28.8507 16.7153 26.8048 18.7782C24.759 20.8411 21.9842 22 19.0909 22C16.1976 22 13.4229 20.8411 11.377 18.7782C9.33117 16.7153 8.18182 13.9174 8.18182 11C8.18182 8.08262 9.33117 5.28473 11.377 3.22183C13.4229 1.15893 16.1976 0 19.0909 0ZM19.0909 2.75C16.921 2.75 14.8399 3.61919 13.3055 5.16637C11.7711 6.71354 10.9091 8.81196 10.9091 11C10.9091 13.188 11.7711 15.2865 13.3055 16.8336C14.8399 18.3808 16.921 19.25 19.0909 19.25C21.2609 19.25 23.3419 18.3808 24.8763 16.8336C26.4107 15.2865 27.2727 13.188 27.2727 11C27.2727 8.81196 26.4107 6.71354 24.8763 5.16637C23.3419 3.61919 21.2609 2.75 19.0909 2.75ZM17.7273 5.5H19.7727V10.6975L22.95 13.9012L21.5045 15.3588L17.7273 11.55V5.5ZM1.36364 19.25C1.00198 19.25 0.655131 19.1051 0.3994 18.8473C0.143668 18.5894 0 18.2397 0 17.875C0 17.5103 0.143668 17.1606 0.3994 16.9027C0.655131 16.6449 1.00198 16.5 1.36364 16.5H6.58636C7.00909 17.4762 7.55455 18.3975 8.18182 19.25H1.36364ZM2.72727 12.375C2.36561 12.375 2.01877 12.2301 1.76304 11.9723C1.5073 11.7144 1.36364 11.3647 1.36364 11C1.36364 10.6353 1.5073 10.2856 1.76304 10.0277C2.01877 9.76987 2.36561 9.625 2.72727 9.625H5.52273L5.45455 11L5.52273 12.375H2.72727ZM4.09091 5.5C3.72925 5.5 3.3824 5.35513 3.12667 5.09727C2.87094 4.83941 2.72727 4.48967 2.72727 4.125C2.72727 3.76033 2.87094 3.41059 3.12667 3.15273C3.3824 2.89487 3.72925 2.75 4.09091 2.75H8.18182C7.55455 3.6025 7.00909 4.52375 6.58636 5.5H4.09091Z" fill="#1ED760"/>
</svg>
