<svg width="24" height="24" viewBox="0 0 24 24" fill="none" xmlns="http://www.w3.org/2000/svg">
<path fill-rule="evenodd" clip-rule="evenodd" d="M9.11088 1.44033C8.81866 1.68936 8.67253 1.8139 8.51647 1.91849C8.15875 2.15825 7.75701 2.32466 7.33452 2.40807C7.15021 2.44446 6.95884 2.45973 6.5761 2.49027C5.61444 2.56702 5.1336 2.60538 4.73245 2.74708C3.80461 3.0748 3.0748 3.80461 2.74708 4.73245C2.60538 5.1336 2.56702 5.61444 2.49027 6.5761C2.45973 6.95884 2.44446 7.15021 2.40807 7.33452C2.32466 7.75701 2.15825 8.15875 1.91849 8.51647C1.8139 8.67253 1.68938 8.81865 1.44033 9.11088C0.814598 9.84516 0.501724 10.2122 0.318267 10.5961C-0.106089 11.484 -0.106089 12.516 0.318267 13.4039C0.501736 13.7878 0.814598 14.1548 1.44033 14.8891C1.68934 15.1813 1.8139 15.3275 1.91849 15.4835C2.15825 15.8412 2.32466 16.243 2.40807 16.6655C2.44446 16.8498 2.45973 17.0412 2.49027 17.4239C2.56702 18.3856 2.60538 18.8664 2.74708 19.2676C3.0748 20.1954 3.80461 20.9252 4.73245 21.253C5.1336 21.3946 5.61444 21.433 6.5761 21.5098C6.95884 21.5402 7.15021 21.5556 7.33452 21.592C7.75701 21.6754 8.15875 21.8418 8.51647 22.0816C8.67253 22.1861 8.81865 22.3106 9.11088 22.5596C9.84516 23.1854 10.2122 23.4983 10.5961 23.6818C11.484 24.1061 12.516 24.1061 13.4039 23.6818C13.7878 23.4983 14.1548 23.1854 14.8891 22.5596C15.1813 22.3106 15.3275 22.1861 15.4835 22.0816C15.8412 21.8418 16.243 21.6754 16.6655 21.592C16.8498 21.5556 17.0412 21.5402 17.4239 21.5098C18.3856 21.433 18.8664 21.3946 19.2676 21.253C20.1954 20.9252 20.9252 20.1954 21.253 19.2676C21.3946 18.8664 21.433 18.3856 21.5098 17.4239C21.5402 17.0412 21.5556 16.8498 21.592 16.6655C21.6754 16.243 21.8418 15.8412 22.0816 15.4835C22.1861 15.3275 22.3106 15.1813 22.5596 14.8891C23.1854 14.1548 23.4983 13.7878 23.6818 13.4039C24.1061 12.516 24.1061 11.484 23.6818 10.5961C23.4983 10.2122 23.1854 9.84516 22.5596 9.11088C22.3106 8.81865 22.1861 8.67253 22.0816 8.51647C21.8418 8.15875 21.6754 7.75701 21.592 7.33452C21.5556 7.15021 21.5402 6.95884 21.5098 6.5761C21.433 5.61444 21.3946 5.1336 21.253 4.73245C20.9252 3.80461 20.1954 3.0748 19.2676 2.74708C18.8664 2.60538 18.3856 2.56702 17.4239 2.49027C17.0412 2.45973 16.8498 2.44446 16.6655 2.40807C16.243 2.32466 15.8412 2.15825 15.4835 1.91849C15.3275 1.8139 15.1813 1.68938 14.8891 1.44033C14.1548 0.814598 13.7878 0.501736 13.4039 0.318267C12.516 -0.106089 11.484 -0.106089 10.5961 0.318267C10.2122 0.501724 9.84516 0.814598 9.11088 1.44033ZM17.2482 9.43577C17.6296 9.05436 17.6296 8.436 17.2482 8.05459C16.8668 7.6732 16.2484 7.6732 15.867 8.05459L10.0468 13.8749L8.13295 11.9611C7.75156 11.5798 7.13319 11.5798 6.75179 11.9611C6.37039 12.3425 6.37039 12.9608 6.75179 13.3423L9.35614 15.9467C9.73752 16.328 10.3559 16.328 10.7374 15.9467L17.2482 9.43577Z" fill="#1ED760"/>
</svg>
